<?xml version="1.0" encoding="UTF-8" standalone="no"?>
<svg width="399px" height="142px" viewBox="0 0 399 142" version="1.1" xmlns="http://www.w3.org/2000/svg" xmlns:xlink="http://www.w3.org/1999/xlink" xmlns:sketch="http://www.bohemiancoding.com/sketch/ns">
    <!-- Generator: Sketch 3.1.1 (8761) - http://www.bohemiancoding.com/sketch -->
    <title>Connext Logo with Slogan@3x</title>
    <desc>Created with Sketch.</desc>
    <defs>
        <filter x="-50%" y="-50%" width="200%" height="200%" filterUnits="objectBoundingBox" id="filter-1">
            <feOffset dx="0" dy="1" in="SourceAlpha" result="shadowOffsetOuter1"></feOffset>
            <feGaussianBlur stdDeviation="1.5" in="shadowOffsetOuter1" result="shadowBlurOuter1"></feGaussianBlur>
            <feColorMatrix values="0 0 0 0 0   0 0 0 0 0   0 0 0 0 0  0 0 0 0.35 0" in="shadowBlurOuter1" type="matrix" result="shadowMatrixOuter1"></feColorMatrix>
            <feMerge>
                <feMergeNode in="shadowMatrixOuter1"></feMergeNode>
                <feMergeNode in="SourceGraphic"></feMergeNode>
            </feMerge>
        </filter>
    </defs>
    <g id="Web" stroke="none" stroke-width="1" fill="none" fill-rule="evenodd" sketch:type="MSPage">
        <g id="Website-Homepage-2" sketch:type="MSArtboardGroup" transform="translate(-520.000000, -495.000000)">
            <g id="Connext-Logo-with-Slogan" sketch:type="MSLayerGroup" transform="translate(530.000000, 503.000000)">
                <g id="Connext-+-Path-2" sketch:type="MSShapeGroup">
                    <path d="M-0.203270756,48.345617 C-0.203270756,66.1698357 10.2482801,77.9955193 29.2870511,77.9955193 C36.1794251,77.9955193 43.7497376,75.9388787 48.777781,72.9681756 L47.0264401,61.4852654 C42.3938608,63.6561638 36.6313841,65.0843865 31.3773612,65.0843865 C21.2082847,65.0843865 16.0107568,57.5433709 16.0107568,46.1175896 C16.0107568,26.1224724 25.1629256,12.6400506 39.3431378,12.6400506 C45.1621094,12.6400506 50.1336579,13.9540154 53.0713911,14.810949 L57.3650012,3.27090993 C54.8792269,1.84268727 48.3258221,-0.271082261 40.9249942,-0.271082261 C16.349726,-0.271082261 -0.203270756,19.7811638 -0.203270756,48.345617 L-0.203270756,48.345617 Z M76.0083081,77.9955193 C95.5555329,77.9955193 108.379868,60.9139763 108.379868,37.5482537 C108.379868,25.3226677 101.430999,17.2103631 89.5670767,17.2103631 C69.9068622,17.2103631 57.1955166,34.3490349 57.1955166,57.7147576 C57.1955166,69.8832146 64.2008804,77.9955193 76.0083081,77.9955193 L76.0083081,77.9955193 Z M78.3810926,66.626867 C74.4829466,66.626867 72.5056262,63.541906 72.5056262,56.9720818 C72.5056262,41.9471795 78.8895464,28.8646599 87.2507871,28.8646599 C91.1489331,28.8646599 93.0697586,31.6068474 93.0697586,38.1766716 C93.0697586,53.2587029 86.855323,66.626867 78.3810926,66.626867 L78.3810926,66.626867 Z M121.204204,18.3529412 C121.430183,21.0951287 121.147709,25.6083123 120.017811,32.6922966 L113.125437,76.8529412 L128.040083,76.8529412 L129.39596,68.0550896 C133.068126,44.6322381 144.706069,32.2352654 150.016587,32.2352654 C153.293289,32.2352654 153.06731,36.6913201 152.728341,38.6908318 L148.54772,65.4271599 C147.813287,70.2259881 148.321741,75.3104607 148.88669,76.8529412 L162.840922,76.8529412 C162.614943,74.1107537 162.840922,69.5975701 163.97082,62.5135857 L168.03845,36.8055779 C169.846286,25.2655388 167.078038,17.2103631 156.965456,17.2103631 C146.739885,17.2103631 137.587716,28.0648552 130.808331,43.0326287 C132.051219,39.204992 134.141529,33.2064568 135.045447,28.807531 C135.89287,24.9227654 136.062354,20.923742 135.271426,18.3529412 L121.204204,18.3529412 Z M183.687529,18.3529412 C183.913509,21.0951287 183.631034,25.6083123 182.501137,32.6922966 L175.608763,76.8529412 L190.523408,76.8529412 L191.879285,68.0550896 C195.551452,44.6322381 207.189395,32.2352654 212.499913,32.2352654 C215.776615,32.2352654 215.550635,36.6913201 215.211666,38.6908318 L211.031046,65.4271599 C210.296613,70.2259881 210.805066,75.3104607 211.370015,76.8529412 L225.324248,76.8529412 C225.098268,74.1107537 225.324248,69.5975701 226.454145,62.5135857 L230.521776,36.8055779 C232.329612,25.2655388 229.561363,17.2103631 219.448781,17.2103631 C209.22321,17.2103631 200.071041,28.0648552 193.291657,43.0326287 C194.534544,39.204992 196.624854,33.2064568 197.528772,28.807531 C198.376195,24.9227654 198.54568,20.923742 197.754752,18.3529412 L183.687529,18.3529412 Z M282.158087,30.5785271 C282.158087,22.2948357 276.678084,17.2103631 266.791482,17.2103631 C247.131267,17.2103631 236.623222,40.1190545 236.623222,59.3714959 C236.623222,72.0541131 242.159719,77.9955193 252.046321,77.9955193 C262.836841,77.9955193 272.384474,73.4252068 276.113135,71.0257927 L274.361795,60.1713006 C270.407154,61.9422966 261.763439,65.5414177 256.452921,65.5414177 C253.232713,65.5414177 251.933331,63.3133904 251.933331,59.2001091 C251.933331,57.2005974 252.046321,55.029699 252.38529,52.9159295 C269.8987,50.3451287 282.327571,43.0326287 282.158087,30.5785271 L282.158087,30.5785271 Z M265.60509,28.5790154 C267.525915,28.5790154 268.712308,29.7787224 268.712308,32.1210076 C268.712308,38.0052849 261.932923,43.1468865 253.515188,44.8036248 C255.492508,36.1771599 260.407562,28.5790154 265.60509,28.5790154 L265.60509,28.5790154 Z M367.634824,4.29923024 L354.641004,5.38467946 L351.477291,18.8099724 L342.438112,19.3812615 L340.799761,29.7215935 L348.935022,29.7215935 L344.019969,60.7997185 C342.042648,73.310949 347.353166,77.9955193 357.409253,77.9955193 C364.92307,77.9955193 372.436888,74.9676873 375.93957,72.9681756 L374.188229,62.1708123 C370.911526,63.5990349 364.697091,65.5414177 361.985337,65.5414177 C359.782037,65.5414177 358.878119,64.5130974 359.047604,61.8280388 C358.991109,61.2567498 359.047604,60.514074 359.217088,59.4286248 L363.849668,29.7215935 L378.14287,29.7215935 L379.950705,18.3529412 L365.431524,18.3529412 L367.634824,4.29923024 Z" id="Connext-2" fill="#FFFFFF"></path>
                    <path d="M317.975834,46.7460076 L338.991925,18.3529412 L323.060372,18.3529412 L311.026965,36.8055779 L304.36057,18.3529412 L288.598502,18.3529412 L301.196858,46.6888787 L277.920971,76.8529412 L293.909019,76.8529412 L308.032737,56.5721795 L316.393977,76.8529412 L332.269036,76.8529412 L317.975834,46.7460076 Z" id="Path-2" fill="#00C4FF"></path>
                </g>
                <path d="M12.8203125,120.949219 C12.8203125,126.554688 16.1972656,130.273438 21.8847656,130.273438 C23.4296875,130.273438 25.0703125,129.876953 26.1367188,129.316406 L25.5488281,127.634766 C24.6875,128.003906 23.375,128.332031 22.0761719,128.332031 C17.6328125,128.332031 15.171875,125.365234 15.171875,120.716797 C15.171875,116.095703 17.7832031,113.484375 21.6796875,113.484375 C23.0058594,113.484375 24.140625,113.798828 25.0566406,114.154297 L25.6035156,112.445312 C24.6464844,111.966797 23.1289062,111.542969 21.6933594,111.542969 C16.1972656,111.542969 12.8203125,115.425781 12.8203125,120.949219 L12.8203125,120.949219 Z M34.53125,130.273438 C38.46875,130.273438 41.1074219,127.306641 41.1074219,122.876953 C41.1074219,118.625 38.5097656,115.726562 34.6953125,115.726562 C30.7578125,115.726562 28.1191406,118.679688 28.1191406,123.109375 C28.1191406,127.361328 30.7167969,130.273438 34.53125,130.273438 L34.53125,130.273438 Z M34.6953125,128.455078 C32.0703125,128.455078 30.4570312,126.322266 30.4570312,122.876953 C30.4570312,119.636719 32.0566406,117.544922 34.53125,117.544922 C37.15625,117.544922 38.7695312,119.664062 38.7695312,123.109375 C38.7695312,126.363281 37.1699219,128.455078 34.6953125,128.455078 L34.6953125,128.455078 Z M44.7988281,116 L44.7988281,130 L47,130 L47,119.376953 C48.0390625,118.40625 49.7070312,117.681641 50.8828125,117.681641 C52.7558594,117.681641 53.7128906,118.84375 53.7128906,121.113281 L53.7128906,130 L55.9277344,130 L55.9277344,120.785156 C55.9277344,117.476562 54.4101562,115.726562 51.5527344,115.726562 C49.9941406,115.726562 48.2988281,116.4375 46.8085938,117.708984 L46.5761719,116 L44.7988281,116 Z M60.5078125,116 L60.5078125,130 L62.7089844,130 L62.7089844,119.376953 C63.7480469,118.40625 65.4160156,117.681641 66.5917969,117.681641 C68.4648438,117.681641 69.421875,118.84375 69.421875,121.113281 L69.421875,130 L71.6367188,130 L71.6367188,120.785156 C71.6367188,117.476562 70.1191406,115.726562 67.2617188,115.726562 C65.703125,115.726562 64.0078125,116.4375 62.5175781,117.708984 L62.2851563,116 L60.5078125,116 Z M86.265625,123.492188 C86.4433594,122.958984 86.6894531,121.90625 86.6894531,120.853516 C86.6894531,117.681641 84.8574219,115.726562 81.6308594,115.726562 C77.625,115.726562 75.1230469,118.679688 75.1230469,123.123047 C75.1230469,127.375 77.6933594,130.273438 81.8359375,130.273438 C83.5039062,130.273438 85.171875,129.822266 86.1015625,129.398438 L85.5683594,127.703125 C84.7070312,128.03125 83.3535156,128.318359 82.1230469,128.318359 C79.2109375,128.318359 77.5703125,126.568359 77.4882812,123.492188 L86.265625,123.492188 Z M81.3847656,117.544922 C83.2714844,117.544922 84.4746094,118.625 84.4882812,120.703125 C84.5019531,121.181641 84.4609375,121.564453 84.3652344,121.90625 L77.5019531,121.90625 C77.6660156,119.294922 79.0742188,117.544922 81.3847656,117.544922 L81.3847656,117.544922 Z M91.625,122.904297 C91.625,119.705078 93.375,117.681641 96.1230469,117.681641 C97.3261719,117.681641 98.2285156,117.941406 99.0078125,118.228516 L99.6777344,116.615234 C98.84375,116.150391 97.5859375,115.726562 96.2050781,115.726562 C92.0898438,115.726562 89.2871094,118.707031 89.2871094,123.136719 C89.2871094,127.402344 92.0078125,130.273438 96.0410156,130.273438 C97.421875,130.273438 98.9667969,129.890625 99.9238281,129.34375 L99.3359375,127.703125 C98.3652344,128.099609 97.3261719,128.318359 96.3417969,128.318359 C93.4023438,128.318359 91.625,126.28125 91.625,122.904297 L91.625,122.904297 Z M105.583984,112.636719 L103.65625,112.896484 L103.601562,116.082031 L101.154297,116.232422 L101.154297,117.818359 L103.464844,117.818359 L103.464844,126.212891 C103.464844,128.824219 104.955078,130.273438 107.634766,130.273438 C108.414062,130.273438 109.5625,130.082031 110.232422,129.863281 L109.808594,128.126953 C109.357422,128.277344 108.550781,128.400391 108.03125,128.400391 C106.404297,128.400391 105.679688,127.634766 105.679688,125.884766 L105.679688,117.818359 L109.822266,117.818359 L109.822266,116 L105.583984,116 L105.583984,112.636719 Z M112.419922,129.248047 C113.376953,129.78125 114.826172,130.273438 116.794922,130.273438 C119.966797,130.273438 121.675781,128.810547 121.675781,126.431641 C121.675781,124.449219 120.513672,123.273438 118.408203,122.439453 L117.21875,121.974609 C115.208984,121.167969 114.703125,120.566406 114.703125,119.554688 C114.703125,118.337891 115.783203,117.667969 117.341797,117.667969 C118.763672,117.667969 119.925781,118.078125 120.636719,118.365234 L121.15625,116.546875 C120.513672,116.232422 119.091797,115.726562 117.341797,115.726562 C114.8125,115.726562 112.583984,117.162109 112.583984,119.705078 C112.583984,121.646484 113.71875,122.822266 115.591797,123.546875 L116.753906,123.998047 C118.640625,124.75 119.542969,125.337891 119.542969,126.527344 C119.542969,127.826172 118.408203,128.332031 116.767578,128.332031 C115.154297,128.332031 113.787109,127.8125 113.035156,127.443359 L112.419922,129.248047 Z M133.488281,112.636719 L131.560547,112.896484 L131.505859,116.082031 L129.058594,116.232422 L129.058594,117.818359 L131.369141,117.818359 L131.369141,126.212891 C131.369141,128.824219 132.859375,130.273438 135.539062,130.273438 C136.318359,130.273438 137.466797,130.082031 138.136719,129.863281 L137.712891,128.126953 C137.261719,128.277344 136.455078,128.400391 135.935547,128.400391 C134.308594,128.400391 133.583984,127.634766 133.583984,125.884766 L133.583984,117.818359 L137.726562,117.818359 L137.726562,116 L133.488281,116 L133.488281,112.636719 Z M141.076172,110.039062 L141.076172,130 L143.277344,130 L143.277344,119.376953 C144.316406,118.40625 145.984375,117.681641 147.160156,117.681641 C149.033203,117.681641 149.990234,118.84375 149.990234,121.113281 L149.990234,130 L152.205078,130 L152.205078,120.785156 C152.205078,117.476562 150.6875,115.726562 147.830078,115.726562 C146.339844,115.726562 144.712891,116.382812 143.277344,117.558594 L143.277344,109.765625 L141.076172,110.039062 Z M166.833984,123.492188 C167.011719,122.958984 167.257812,121.90625 167.257812,120.853516 C167.257812,117.681641 165.425781,115.726562 162.199219,115.726562 C158.193359,115.726562 155.691406,118.679688 155.691406,123.123047 C155.691406,127.375 158.261719,130.273438 162.404297,130.273438 C164.072266,130.273438 165.740234,129.822266 166.669922,129.398438 L166.136719,127.703125 C165.275391,128.03125 163.921875,128.318359 162.691406,128.318359 C159.779297,128.318359 158.138672,126.568359 158.056641,123.492188 L166.833984,123.492188 Z M161.953125,117.544922 C163.839844,117.544922 165.042969,118.625 165.056641,120.703125 C165.070312,121.181641 165.029297,121.564453 164.933594,121.90625 L158.070312,121.90625 C158.234375,119.294922 159.642578,117.544922 161.953125,117.544922 L161.953125,117.544922 Z M187.957031,130 L190.773438,130 L190.773438,111.816406 L188.613281,111.816406 L188.613281,127.169922 L180.054688,111.816406 L177.238281,111.816406 L177.238281,130 L179.398438,130 L179.398438,114.646484 L187.957031,130 Z M205.607422,123.492188 C205.785156,122.958984 206.03125,121.90625 206.03125,120.853516 C206.03125,117.681641 204.199219,115.726562 200.972656,115.726562 C196.966797,115.726562 194.464844,118.679688 194.464844,123.123047 C194.464844,127.375 197.035156,130.273438 201.177734,130.273438 C202.845703,130.273438 204.513672,129.822266 205.443359,129.398438 L204.910156,127.703125 C204.048828,128.03125 202.695313,128.318359 201.464844,128.318359 C198.552734,128.318359 196.912109,126.568359 196.830078,123.492188 L205.607422,123.492188 Z M200.726562,117.544922 C202.613281,117.544922 203.816406,118.625 203.830078,120.703125 C203.84375,121.181641 203.802734,121.564453 203.707031,121.90625 L196.84375,121.90625 C197.007812,119.294922 198.416016,117.544922 200.726562,117.544922 L200.726562,117.544922 Z M215.423828,122.863281 L220.058594,116 L217.474609,116 L214.138672,121.236328 L210.816406,116 L208.232422,116 L212.867188,122.863281 L207.740234,130 L210.324219,130 L214.138672,124.435547 L217.966797,130 L220.550781,130 L215.423828,122.863281 Z M225.800781,112.636719 L223.873047,112.896484 L223.818359,116.082031 L221.371094,116.232422 L221.371094,117.818359 L223.681641,117.818359 L223.681641,126.212891 C223.681641,128.824219 225.171875,130.273438 227.851562,130.273438 C228.630859,130.273438 229.779297,130.082031 230.449219,129.863281 L230.025391,128.126953 C229.574219,128.277344 228.767578,128.400391 228.248047,128.400391 C226.621094,128.400391 225.896484,127.634766 225.896484,125.884766 L225.896484,117.818359 L230.039062,117.818359 L230.039062,116 L225.800781,116 L225.800781,112.636719 Z M252.269531,120.552734 L246.5,120.552734 L246.5,122.275391 L250.027344,122.330078 L250.027344,127.908203 C249.412109,128.140625 248.263672,128.332031 247.375,128.332031 C243.177734,128.332031 240.525391,125.556641 240.525391,120.757812 C240.525391,115.958984 243.246094,113.484375 247.019531,113.484375 C248.591797,113.484375 249.890625,113.921875 250.806641,114.277344 L251.503906,112.623047 C250.177734,111.939453 248.578125,111.542969 247.101563,111.542969 C241.441406,111.542969 238.173828,115.521484 238.173828,120.949219 C238.173828,126.417969 241.291016,130.273438 247.074219,130.273438 C248.974609,130.273438 251.121094,129.658203 252.269531,128.796875 L252.269531,120.552734 Z M266.488281,123.492188 C266.666016,122.958984 266.912109,121.90625 266.912109,120.853516 C266.912109,117.681641 265.080078,115.726562 261.853516,115.726562 C257.847656,115.726562 255.345703,118.679688 255.345703,123.123047 C255.345703,127.375 257.916016,130.273438 262.058594,130.273438 C263.726562,130.273438 265.394531,129.822266 266.324219,129.398438 L265.791016,127.703125 C264.929688,128.03125 263.576172,128.318359 262.345703,128.318359 C259.433594,128.318359 257.792969,126.568359 257.710938,123.492188 L266.488281,123.492188 Z M261.607422,117.544922 C263.494141,117.544922 264.697266,118.625 264.710938,120.703125 C264.724609,121.181641 264.683594,121.564453 264.587891,121.90625 L257.724609,121.90625 C257.888672,119.294922 259.296875,117.544922 261.607422,117.544922 L261.607422,117.544922 Z M270.603516,116 L270.603516,130 L272.804688,130 L272.804688,119.376953 C273.84375,118.40625 275.511719,117.681641 276.6875,117.681641 C278.560547,117.681641 279.517578,118.84375 279.517578,121.113281 L279.517578,130 L281.732422,130 L281.732422,120.785156 C281.732422,117.476562 280.214844,115.726562 277.357422,115.726562 C275.798828,115.726562 274.103516,116.4375 272.613281,117.708984 L272.380859,116 L270.603516,116 Z M296.361328,123.492188 C296.539062,122.958984 296.785156,121.90625 296.785156,120.853516 C296.785156,117.681641 294.953125,115.726562 291.726562,115.726562 C287.720703,115.726562 285.21875,118.679688 285.21875,123.123047 C285.21875,127.375 287.789062,130.273438 291.931641,130.273438 C293.599609,130.273438 295.267578,129.822266 296.197266,129.398438 L295.664062,127.703125 C294.802734,128.03125 293.449219,128.318359 292.21875,128.318359 C289.306641,128.318359 287.666016,126.568359 287.583984,123.492188 L296.361328,123.492188 Z M291.480469,117.544922 C293.367188,117.544922 294.570312,118.625 294.583984,120.703125 C294.597656,121.181641 294.556641,121.564453 294.460938,121.90625 L287.597656,121.90625 C287.761719,119.294922 289.169922,117.544922 291.480469,117.544922 L291.480469,117.544922 Z M300.476562,116 L300.476562,130 L302.677734,130 L302.677734,119.595703 C303.552734,118.734375 305.357422,118.050781 307.025391,117.955078 L307.025391,115.726562 C305.193359,115.835938 303.197266,117.052734 302.472656,117.96875 L302.130859,116 L300.476562,116 Z M318.742188,120.511719 C318.742188,117.53125 317.019531,115.726562 313.820312,115.726562 C311.878906,115.726562 310.183594,116.410156 309.417969,116.861328 L309.992188,118.488281 C310.689453,118.160156 312.097656,117.681641 313.546875,117.681641 C315.720703,117.681641 316.541016,118.857422 316.541016,120.867188 L316.541016,122.371094 C313.205078,122.001953 308.734375,122.576172 308.734375,126.527344 C308.734375,128.755859 310.525391,130.273438 312.849609,130.273438 C314.339844,130.273438 315.734375,129.589844 316.841797,128.386719 C317.087891,129.371094 317.785156,130.273438 319.138672,130.273438 C319.78125,130.273438 320.369141,130.095703 320.683594,129.931641 L320.464844,128.345703 C320.300781,128.414062 320.054688,128.509766 319.685547,128.509766 C319.111328,128.509766 318.742188,128.154297 318.742188,127.279297 L318.742188,120.511719 Z M311.003906,126.267578 C311.003906,123.615234 314.832031,123.669922 316.541016,123.902344 L316.541016,126.841797 C315.693359,127.771484 314.585938,128.386719 313.396484,128.400391 C311.947266,128.400391 311.003906,127.580078 311.003906,126.267578 L311.003906,126.267578 Z M326.001953,112.636719 L324.074219,112.896484 L324.019531,116.082031 L321.572266,116.232422 L321.572266,117.818359 L323.882812,117.818359 L323.882812,126.212891 C323.882812,128.824219 325.373047,130.273438 328.052734,130.273438 C328.832031,130.273438 329.980469,130.082031 330.650391,129.863281 L330.226562,128.126953 C329.775391,128.277344 328.96875,128.400391 328.449219,128.400391 C326.822266,128.400391 326.097656,127.634766 326.097656,125.884766 L326.097656,117.818359 L330.240234,117.818359 L330.240234,116 L326.001953,116 L326.001953,112.636719 Z M333.166016,111.611328 C333.166016,112.417969 333.835938,113.087891 334.628906,113.087891 C335.517578,113.087891 336.214844,112.404297 336.214844,111.488281 C336.214844,110.708984 335.53125,110.039062 334.751953,110.039062 C333.849609,110.039062 333.166016,110.722656 333.166016,111.611328 L333.166016,111.611328 Z M333.589844,116 L333.589844,130 L335.791016,130 L335.791016,116 L333.589844,116 Z M345.894531,130.273438 C349.832031,130.273438 352.470703,127.306641 352.470703,122.876953 C352.470703,118.625 349.873047,115.726562 346.058594,115.726562 C342.121094,115.726562 339.482422,118.679688 339.482422,123.109375 C339.482422,127.361328 342.080078,130.273438 345.894531,130.273438 L345.894531,130.273438 Z M346.058594,128.455078 C343.433594,128.455078 341.820312,126.322266 341.820312,122.876953 C341.820312,119.636719 343.419922,117.544922 345.894531,117.544922 C348.519531,117.544922 350.132812,119.664062 350.132812,123.109375 C350.132812,126.363281 348.533203,128.455078 346.058594,128.455078 L346.058594,128.455078 Z M356.162109,116 L356.162109,130 L358.363281,130 L358.363281,119.376953 C359.402344,118.40625 361.070312,117.681641 362.246094,117.681641 C364.119141,117.681641 365.076172,118.84375 365.076172,121.113281 L365.076172,130 L367.291016,130 L367.291016,120.785156 C367.291016,117.476562 365.773438,115.726562 362.916016,115.726562 C361.357422,115.726562 359.662109,116.4375 358.171875,117.708984 L357.939453,116 L356.162109,116 Z" id="Connects-the-Next-Ge" fill="#FFFFFF" filter="url(#filter-1)" sketch:type="MSShapeGroup"></path>
            </g>
        </g>
    </g>
</svg>